<svg width="18" height="18" viewBox="0 0 18 18" fill="none" xmlns="http://www.w3.org/2000/svg">
<path id="Vector" d="M17.9775 3.438L17.3256 5.98669C17.3025 6.07736 17.262 6.16253 17.2064 6.23731C17.1508 6.31209 17.0812 6.37502 17.0016 6.4225C16.922 6.46997 16.8339 6.50105 16.7424 6.51397C16.651 6.52688 16.5579 6.52137 16.4685 6.49774L13.8797 5.81731C13.7898 5.79427 13.7053 5.75345 13.6311 5.69719C13.5569 5.64094 13.4943 5.57036 13.4471 5.48951C13.3999 5.40866 13.3689 5.31915 13.3559 5.22611C13.3429 5.13308 13.3482 5.03836 13.3714 4.94741C13.3947 4.85645 13.4355 4.77106 13.4914 4.69614C13.5474 4.62122 13.6174 4.55825 13.6974 4.51085C13.7774 4.46346 13.8659 4.43257 13.9578 4.41997C14.0496 4.40737 14.143 4.4133 14.2326 4.43743L15.1369 4.6751C13.2689 1.94907 9.79833 0.748277 6.64172 1.81247C5.54831 2.17697 4.5535 2.79425 3.7359 3.61553C2.91831 4.43681 2.30032 5.43958 1.93078 6.54461C1.87018 6.72339 1.74199 6.87044 1.57443 6.95342C1.40687 7.03639 1.21365 7.04849 1.03729 6.98706C0.860925 6.92562 0.715861 6.79568 0.634008 6.62582C0.552155 6.45596 0.540218 6.26009 0.600824 6.08131C1.03847 4.79442 1.75588 3.6237 2.7 2.65574C3.67813 1.65342 4.87702 0.900819 6.19805 0.459822C8.0434 -0.162119 10.0391 -0.152914 11.8788 0.486023C13.7185 1.12496 15.3005 2.35831 16.3819 3.99673L16.6162 3.0804C16.663 2.89741 16.7796 2.74077 16.9404 2.64492C17.1011 2.54908 17.2928 2.52189 17.4733 2.56933C17.6538 2.61678 17.8084 2.73497 17.9029 2.89791C17.9975 3.06085 18.0243 3.25519 17.9775 3.43817V3.438ZM16.9629 11.0135C16.8756 10.9831 16.7832 10.9704 16.691 10.9762C16.5989 10.982 16.5087 11.0061 16.4258 11.0472C16.3428 11.0883 16.2686 11.1456 16.2075 11.2157C16.1464 11.2859 16.0995 11.3675 16.0695 11.456C15.6999 12.5611 15.0819 13.5638 14.2643 14.3851C13.4467 15.2064 12.4519 15.8237 11.3585 16.1882C8.20195 17.2524 4.73133 16.0516 2.86344 13.3256L3.76773 13.5632C3.85754 13.588 3.95132 13.5945 4.04362 13.5823C4.13593 13.5701 4.22493 13.5395 4.30545 13.4921C4.38597 13.4448 4.45642 13.3817 4.5127 13.3065C4.56899 13.2314 4.60999 13.1456 4.63333 13.0543C4.65667 12.9629 4.66189 12.8678 4.64867 12.7744C4.63546 12.681 4.60408 12.5912 4.55636 12.5101C4.50864 12.4291 4.44552 12.3585 4.37067 12.3024C4.29581 12.2463 4.21072 12.2058 4.12031 12.1833L1.53141 11.5029C1.3509 11.4555 1.1592 11.4827 0.998465 11.5785C0.837733 11.6743 0.721141 11.831 0.674336 12.014L0.0225044 14.5627C-0.000669548 14.6533 -0.00601169 14.7476 0.00678297 14.8403C0.0195776 14.933 0.0502585 15.0222 0.0970739 15.1029C0.143889 15.1836 0.205922 15.2541 0.279631 15.3105C0.35334 15.3669 0.437281 15.408 0.526662 15.4315C0.616043 15.455 0.709113 15.4604 0.800559 15.4474C0.892004 15.4345 0.980034 15.4034 1.05962 15.3559C1.13921 15.3084 1.2088 15.2456 1.26441 15.1708C1.32003 15.0961 1.36058 15.011 1.38375 14.9204L1.61814 14.0041C2.69999 15.642 4.282 16.875 6.12154 17.5138C7.96108 18.1527 9.95657 18.1622 11.802 17.5409C13.123 17.0998 14.3219 16.3472 15.3 15.3449C16.2441 14.3769 16.9616 13.2061 17.3992 11.9192C17.4598 11.7404 17.4479 11.5446 17.366 11.3748C17.2842 11.2049 17.1392 11.075 16.9629 11.0135Z" fill="#414345"/>
</svg>
