<svg width="40" height="40" viewBox="0 0 40 40" fill="none" xmlns="http://www.w3.org/2000/svg">
<g id="Group 1000003762">
<rect id="Rectangle 969" x="0.5" y="0.5" width="39" height="39" rx="3.5" stroke="#222426"/>
<g id="Layer 41">
<path id="Vector" d="M29.2719 21.6855C29.0788 21.6855 28.8937 21.7623 28.7571 21.8988C28.6206 22.0353 28.5439 22.2205 28.5439 22.4136V24.9C28.5439 25.486 28.3111 26.048 27.8967 26.4624C27.4823 26.8768 26.9202 27.1096 26.3342 27.1096H13.6658C13.0798 27.1096 12.5177 26.8768 12.1033 26.4624C11.6889 26.048 11.4561 25.486 11.4561 24.9V22.4136C11.4561 22.2205 11.3794 22.0353 11.2429 21.8988C11.1063 21.7623 10.9212 21.6855 10.7281 21.6855C10.535 21.6855 10.3498 21.7623 10.2132 21.8988C10.0767 22.0353 10 22.2205 10 22.4136V24.9C10.001 25.8719 10.3875 26.8038 11.0748 27.491C11.762 28.1783 12.6939 28.5648 13.6658 28.5658H26.3342C27.3061 28.5648 28.238 28.1783 28.9252 27.491C29.6125 26.8038 29.999 25.8719 30 24.9V22.4136C30 22.2205 29.9233 22.0353 29.7868 21.8988C29.6502 21.7623 29.465 21.6855 29.2719 21.6855Z" fill="#222426"/>
<path id="Vector_2" d="M19.4832 23.8114C19.5509 23.8797 19.6314 23.9338 19.7201 23.9708C19.8088 24.0078 19.904 24.0268 20.0001 24.0268C20.0962 24.0268 20.1914 24.0078 20.2801 23.9708C20.3688 23.9338 20.4494 23.8797 20.5171 23.8114L24.6598 19.6687C24.7753 19.5296 24.835 19.3525 24.8272 19.1718C24.8194 18.9912 24.7446 18.8199 24.6174 18.6913C24.4902 18.5628 24.3197 18.4861 24.1391 18.4764C23.9585 18.4666 23.7808 18.5244 23.6405 18.6385L20.7282 21.5508V10.7281C20.7282 10.535 20.6515 10.3498 20.5149 10.2132C20.3784 10.0767 20.1932 10 20.0001 10C19.807 10 19.6218 10.0767 19.4853 10.2132C19.3488 10.3498 19.2721 10.535 19.2721 10.7281V21.5399L16.3598 18.6276C16.2232 18.491 16.0379 18.4142 15.8447 18.4142C15.6515 18.4142 15.4662 18.491 15.3296 18.6276C15.193 18.7642 15.1162 18.9495 15.1162 19.1427C15.1162 19.3359 15.193 19.5212 15.3296 19.6578L19.4832 23.8114Z" fill="#222426"/>
</g>
</g>
</svg>
