<svg width="16" height="16" viewBox="0 0 16 16" fill="none" xmlns="http://www.w3.org/2000/svg">
<g clip-path="url(#clip0_182_362)">
<path d="M12.5 14V5L10 5C9.4375 5 9 4.5625 9 4V1.5L4 1.5C3.71875 1.5 3.5 1.75 3.5 2L3.5 14C3.5 14.2812 3.71875 14.5 4 14.5H12C12.25 14.5 12.5 14.2812 12.5 14ZM2 2C2 0.90625 2.875 0 4 0L9.15625 0C9.6875 0 10.1875 0.21875 10.5625 0.59375L13.4062 3.4375C13.7812 3.8125 14 4.3125 14 4.84375V14C14 15.125 13.0938 16 12 16H4C2.875 16 2 15.125 2 14L2 2ZM8 6.75C8.34375 6.75 8.625 7.03125 8.625 7.375V7.6875C8.84375 7.71875 9.0625 7.78125 9.25 7.8125C9.59375 7.90625 9.8125 8.25 9.71875 8.5625C9.65625 8.90625 9.3125 9.125 8.96875 9.03125C8.625 8.96875 8.28125 8.90625 7.96875 8.90625C7.71875 8.875 7.46875 8.9375 7.28125 9.03125C7.125 9.125 7.125 9.1875 7.125 9.21875C7.125 9.25 7.15625 9.28125 7.25 9.34375C7.4375 9.4375 7.75 9.53125 8.15625 9.625C8.5 9.71875 8.96875 9.84375 9.3125 10.0625C9.6875 10.2812 10.0938 10.6562 10.0938 11.2812C10.125 11.9375 9.75 12.375 9.3125 12.5938C9.09375 12.7188 8.84375 12.8125 8.59375 12.8438V13.1562C8.59375 13.5 8.3125 13.7812 7.96875 13.7812C7.625 13.7812 7.34375 13.5 7.34375 13.1562V12.8125C7.03125 12.75 6.75 12.6562 6.5 12.5938C6.4375 12.5625 6.375 12.5625 6.3125 12.5312C5.96875 12.4375 5.78125 12.0938 5.875 11.75C5.96875 11.4062 6.34375 11.2188 6.65625 11.3438C6.75 11.3438 6.8125 11.375 6.875 11.4062C7.3125 11.5312 7.65625 11.625 8 11.625C8.28125 11.6562 8.53125 11.5938 8.71875 11.5C8.84375 11.4375 8.875 11.375 8.875 11.2812C8.875 11.2812 8.875 11.2188 8.71875 11.125C8.5 11.0312 8.21875 10.9375 7.8125 10.8438L7.78125 10.8125C7.4375 10.7188 7 10.5938 6.65625 10.4375C6.28125 10.2188 5.875 9.84375 5.875 9.21875C5.84375 8.5625 6.28125 8.15625 6.6875 7.9375C6.90625 7.8125 7.125 7.75 7.375 7.6875V7.375C7.375 7.03125 7.65625 6.75 8 6.75ZM5 3L7.5 3C7.75 3 8 3.25 8 3.5C8 3.78125 7.75 4 7.5 4H5C4.71875 4 4.5 3.78125 4.5 3.5C4.5 3.25 4.71875 3 5 3ZM5 5H7.5C7.75 5 8 5.25 8 5.5C8 5.78125 7.75 6 7.5 6H5C4.71875 6 4.5 5.78125 4.5 5.5C4.5 5.25 4.71875 5 5 5Z" fill="#222426"/>
</g>
<defs>
<clipPath id="clip0_182_362">
<rect width="16" height="16" fill="white"/>
</clipPath>
</defs>
</svg>
