<svg width="15" height="16" viewBox="0 0 15 16" fill="none" xmlns="http://www.w3.org/2000/svg">
<path id="Vector" d="M13.9615 0H1.03846C0.742308 0 0.5 0.257153 0.5 0.571451V3.42871C0.5 3.57157 0.548462 3.70872 0.64 3.81158L5.34615 9.36037V15.4292C5.34615 15.8863 5.83077 16.1549 6.18077 15.9035L9.41154 13.6177C9.56231 13.5091 9.65385 13.332 9.65385 13.1434V9.36037L14.36 3.81158C14.4515 3.70872 14.5 3.57157 14.5 3.42871V0.571451C14.5 0.257153 14.2577 0 13.9615 0ZM13.4231 3.21156L8.71692 8.76035C8.62539 8.86321 8.57692 9.00036 8.57692 9.14322V12.8348L6.42308 14.3606V9.14322C6.42308 9.00036 6.37462 8.86321 6.28308 8.76035L1.57692 3.21156V1.1429H13.4231V3.21156Z" fill="#222426"/>
</svg>
