<svg width="264" height="51" viewBox="0 0 264 51" fill="none" xmlns="http://www.w3.org/2000/svg">
<path d="M32.604 0H6.732L0 25.08L9.57943 37.5634H22.5909L32.1703 50.0469L42.24 12.54L32.604 0ZM31.2463 19.8C31.2463 20.1583 30.9446 20.46 30.5863 20.46C28.5874 20.46 27.588 22.8737 29.0023 24.288C29.2663 24.552 29.2663 24.9669 29.0023 25.2309L27.5691 26.664C27.3051 26.928 26.8903 26.928 26.6263 26.664C25.212 25.2497 22.7983 26.2491 22.7983 28.248C22.7983 28.6251 22.4966 28.908 22.1383 28.908H20.1206C19.7623 28.908 19.4606 28.6063 19.4606 28.248C19.4606 26.2491 17.0469 25.2497 15.6326 26.664C15.3686 26.928 14.9537 26.928 14.6897 26.664L13.2566 25.2309C12.9926 24.9669 12.9926 24.552 13.2566 24.288C14.6709 22.8737 13.6714 20.46 11.6726 20.46C11.3143 20.46 11.0126 20.1583 11.0126 19.8V17.7823C11.0126 17.424 11.3143 17.1223 11.6726 17.1223C13.6714 17.1223 14.6709 14.7086 13.2566 13.2943C12.9926 13.0303 12.9926 12.6154 13.2566 12.3514L14.6897 10.9183C14.9537 10.6543 15.3686 10.6543 15.6326 10.9183C17.0469 12.3326 19.4606 11.3331 19.4606 9.33429C19.4606 8.976 19.7623 8.67429 20.1206 8.67429H22.1383C22.4966 8.67429 22.7983 8.976 22.7983 9.33429C22.7983 11.3331 25.212 12.3326 26.6263 10.9183C26.8903 10.6543 27.3051 10.6543 27.5691 10.9183L29.0023 12.3514C29.2663 12.6154 29.2663 13.0303 29.0023 13.2943C27.588 14.7086 28.5874 17.1223 30.5863 17.1223C30.9634 17.1223 31.2463 17.424 31.2463 17.7823V19.8Z" fill="#FFCC00"/>
<path d="M59.8901 29.172H69.8655V40.6372C68.5832 41.58 66.9427 42.3532 64.9815 42.9377C63.0204 43.5223 61.1912 43.824 59.513 43.824C57.0804 43.824 54.8741 43.2772 52.8941 42.1835C50.933 41.0897 49.3867 39.5812 48.2552 37.6766C47.1238 35.772 46.5581 33.6223 46.5581 31.2463C46.5581 28.908 47.1427 26.7772 48.293 24.8726C49.4621 22.968 51.0461 21.4783 53.0827 20.4035C55.1192 19.3286 57.401 18.7817 59.909 18.7817C61.7004 18.7817 63.4541 19.1023 65.1512 19.7623C66.8484 20.4223 68.3192 21.2897 69.5638 22.4023L65.981 26.8149C65.1135 25.9852 64.1518 25.3252 63.0958 24.8537C62.0398 24.3635 60.965 24.1372 59.8712 24.1372C58.589 24.1372 57.4198 24.4389 56.3827 25.0612C55.3455 25.6835 54.5347 26.532 53.9312 27.6069C53.3278 28.6817 53.0261 29.8886 53.0261 31.2275C53.0261 32.5852 53.3278 33.8109 53.9312 34.9046C54.5347 35.9983 55.3644 36.8469 56.4204 37.4692C57.4764 38.0915 58.6455 38.3932 59.9467 38.3932C61.1724 38.3932 62.549 37.9972 64.1141 37.224V34.8857H59.8712V29.172H59.8901Z" fill="white"/>
<path d="M92.117 20.4035C94.1159 21.4783 95.681 22.968 96.8125 24.8537C97.9439 26.7395 98.5284 28.8515 98.5284 31.2086C98.5284 33.5846 97.9627 35.7155 96.8125 37.62C95.681 39.5246 94.1159 41.0332 92.117 42.1457C90.1182 43.2583 87.893 43.8052 85.4416 43.8052C82.9713 43.8052 80.7462 43.2583 78.7662 42.1646C76.7673 41.0709 75.2022 39.5623 74.0707 37.6389C72.9393 35.7155 72.3547 33.5657 72.3547 31.2086C72.3547 28.8703 72.9204 26.7395 74.0707 24.8537C75.2022 22.968 76.7673 21.4783 78.7662 20.4035C80.765 19.3286 82.9902 18.7817 85.4416 18.7817C87.893 18.7817 90.1182 19.3286 92.117 20.4035ZM82.1793 25.0612C81.161 25.6835 80.3502 26.532 79.7467 27.6257C79.1433 28.7195 78.8416 29.9263 78.8416 31.2275C78.8416 32.5663 79.1433 33.7732 79.7467 34.8669C80.3502 35.9606 81.161 36.828 82.1793 37.4503C83.1976 38.0915 84.2913 38.3932 85.4982 38.3932C86.6862 38.3932 87.7987 38.0726 88.7982 37.4503C89.7976 36.8092 90.5896 35.9606 91.1553 34.8669C91.721 33.7732 92.0227 32.5663 92.0227 31.2275C92.0227 29.9075 91.7399 28.7195 91.1553 27.6257C90.5707 26.532 89.7976 25.6835 88.7982 25.0612C87.7987 24.4389 86.705 24.1372 85.4982 24.1372C84.3102 24.1372 83.1976 24.4389 82.1793 25.0612Z" fill="white"/>
<path d="M115.688 43.3525L112.162 36.6582H112.03H107.486V43.3525H101.168V19.1588H112.049C115.255 19.1588 117.725 19.8942 119.479 21.384C121.232 22.8737 122.119 24.948 122.119 27.6445C122.119 29.4548 121.742 31.0388 121.006 32.3588C120.271 33.6788 119.196 34.716 117.8 35.4514L122.835 43.3525H115.688ZM107.486 31.6234H112.068C113.35 31.6234 114.35 31.3028 115.047 30.6617C115.745 30.0205 116.103 29.0777 116.103 27.8708C116.103 26.7017 115.745 25.7965 115.047 25.1554C114.35 24.5142 113.35 24.2125 112.068 24.2125H107.486V31.6234Z" fill="white"/>
<path d="M125.683 19.1588H132V43.3525H125.683V19.1588Z" fill="white"/>
<path d="M136.394 19.1588H142.711V29.04H152.479V19.1588H158.796V43.3525H152.479V34.0748H142.711V43.3525H136.394V19.1588Z" fill="white"/>
<path d="M181.462 20.4035C183.461 21.4783 185.026 22.968 186.158 24.8537C187.289 26.7395 187.874 28.8515 187.874 31.2086C187.874 33.5846 187.308 35.7155 186.158 37.62C185.026 39.5246 183.461 41.0332 181.462 42.1457C179.463 43.2583 177.238 43.8052 174.787 43.8052C172.317 43.8052 170.091 43.2583 168.111 42.1646C166.113 41.0709 164.547 39.5623 163.416 37.6389C162.285 35.7155 161.7 33.5657 161.7 31.2086C161.7 28.8703 162.266 26.7395 163.416 24.8537C164.566 22.968 166.113 21.4783 168.111 20.4035C170.11 19.3286 172.335 18.7817 174.787 18.7817C177.238 18.7817 179.482 19.3286 181.462 20.4035ZM171.525 25.0612C170.506 25.6835 169.695 26.532 169.092 27.6257C168.489 28.7195 168.187 29.9263 168.187 31.2275C168.187 32.5663 168.489 33.7732 169.092 34.8669C169.695 35.9606 170.506 36.828 171.525 37.4503C172.543 38.0915 173.637 38.3932 174.843 38.3932C176.031 38.3932 177.144 38.0726 178.143 37.4503C179.143 36.8092 179.935 35.9606 180.501 34.8669C181.066 33.7732 181.368 32.5663 181.368 31.2275C181.368 29.9075 181.085 28.7195 180.501 27.6257C179.916 26.532 179.143 25.6835 178.143 25.0612C177.144 24.4389 176.05 24.1372 174.843 24.1372C173.655 24.1372 172.543 24.4389 171.525 25.0612Z" fill="white"/>
<path d="M187.044 19.1588H193.851L199.886 36.6582L205.958 19.1588H212.445L202.978 43.3525H196.416L187.044 19.1588Z" fill="white"/>
<path d="M231.377 20.4035C233.376 21.4783 234.941 22.968 236.072 24.8537C237.204 26.7395 237.788 28.8515 237.788 31.2086C237.788 33.5846 237.223 35.7155 236.072 37.62C234.941 39.5246 233.376 41.0332 231.377 42.1457C229.378 43.2583 227.153 43.8052 224.702 43.8052C222.231 43.8052 220.006 43.2583 218.026 42.1646C216.027 41.0709 214.462 39.5623 213.331 37.6389C212.199 35.7155 211.615 33.5657 211.615 31.2086C211.615 28.8703 212.18 26.7395 213.331 24.8537C214.481 22.968 216.027 21.4783 218.026 20.4035C220.025 19.3286 222.25 18.7817 224.702 18.7817C227.172 18.7817 229.397 19.3286 231.377 20.4035ZM221.439 25.0612C220.421 25.6835 219.61 26.532 219.007 27.6257C218.403 28.7195 218.102 29.9263 218.102 31.2275C218.102 32.5663 218.403 33.7732 219.007 34.8669C219.61 35.9606 220.421 36.828 221.439 37.4503C222.458 38.0915 223.551 38.3932 224.758 38.3932C225.946 38.3932 227.059 38.0726 228.058 37.4503C229.058 36.8092 229.85 35.9606 230.415 34.8669C230.981 33.7732 231.283 32.5663 231.283 31.2275C231.283 29.9075 231 28.7195 230.415 27.6257C229.831 26.532 229.058 25.6835 228.058 25.0612C227.059 24.4389 225.965 24.1372 224.758 24.1372C223.57 24.1372 222.476 24.4389 221.439 25.0612Z" fill="white"/>
<path d="M257.834 20.6862C259.776 21.7045 261.285 23.1188 262.378 24.948C263.453 26.7771 264 28.8702 264 31.2462C264 33.6222 263.453 35.7154 262.359 37.5634C261.266 39.4114 259.719 40.8257 257.739 41.844C255.741 42.8622 253.459 43.3714 250.894 43.3714H240.711V19.1588H251.139C253.647 19.1588 255.891 19.668 257.834 20.6862ZM254.534 37.3748C255.477 36.8091 256.212 35.9794 256.74 34.9234C257.268 33.8674 257.532 32.6605 257.532 31.3028C257.532 29.9262 257.249 28.7005 256.683 27.6445C256.118 26.5885 255.345 25.7588 254.345 25.1742C253.365 24.5897 252.233 24.288 250.97 24.288H247.01V38.2234H251.29C252.516 38.2422 253.591 37.9594 254.534 37.3748Z" fill="white"/>
</svg>
