<svg width="71" height="70" viewBox="0 0 71 70" fill="none" xmlns="http://www.w3.org/2000/svg">
<path d="M49.8958 54.152L59.5625 48.1092M49.8958 54.152C48.7882 54.9318 47.3785 55.3216 45.9688 55.3216H9.41667C8.00694 55.3216 7 56.2963 7 57.6608C7 58.9279 8.00694 60 9.41667 60H45.9688C48.2847 60 50.6007 59.3177 52.6146 58.0507M49.8958 54.152L50.1609 54.576L50.1722 54.5689M49.8958 54.152L50.1836 54.5609C50.1798 54.5636 50.176 54.5663 50.1722 54.5689M59.5625 48.1092L54.5278 42.1637M59.5625 48.1092C59.8646 47.9142 60.1667 47.5244 60.1667 47.1345C60.1667 46.4522 59.5625 45.8674 58.8576 45.8674H58.1528C57.75 45.8674 57.4479 45.9649 57.1458 46.1598L59.5625 48.1092ZM52.6146 58.0507L62.1806 52.0078C63.8924 50.9357 65 49.0838 65 47.1345C65 43.8207 62.2812 41.1891 58.8576 41.1891H58.1528C56.8437 41.1891 55.6354 41.5789 54.5278 42.1637M52.6146 58.0507L52.3483 57.6275M52.6146 58.0507L52.3475 57.628M54.5278 42.1637L54.7612 42.6059C54.7655 42.6037 54.7697 42.6014 54.774 42.5992L54.7866 42.5915L54.5278 42.1637ZM52.3483 57.6275L52.3475 57.628M52.3483 57.6275L52.3475 57.628M52.3483 57.6275L21.1563 41.5186L13.7142 46.2884L13.5909 46.3674H13.4444H9.41667C8.28139 46.3674 7.5 47.2174 7.5 48.2066C7.5 49.2798 8.2676 50.0458 9.41667 50.0458H14.25C14.586 50.0458 14.9747 49.9623 15.2653 49.7513L15.277 49.7428L15.2891 49.7351L23.3435 44.5701C23.3437 44.57 23.3439 44.5699 23.3441 44.5697C24.0134 44.138 24.9114 43.808 25.8299 43.808H41.6389C42.1986 43.808 42.7205 44.0742 43.0943 44.4361C43.4671 44.7969 43.75 45.3091 43.75 45.8674C43.75 47.0555 42.6845 47.9269 41.6389 47.9269H39.2222H32.7778C31.6425 47.9269 30.8611 48.7769 30.8611 49.7661C30.8611 50.8392 31.6287 51.6053 32.7778 51.6053H39.2222H41.6389H46.3715C46.7924 51.6053 47.1163 51.5275 47.4438 51.3719L56.8823 45.7348C57.2612 45.4921 57.6551 45.3674 58.1528 45.3674H58.8576C59.8232 45.3674 60.6667 46.1609 60.6667 47.1345C60.6667 47.4559 60.5441 47.746 60.3944 47.9716C60.2435 48.1987 60.0432 48.394 59.8336 48.5293L59.8276 48.5332L59.8275 48.5331L50.1722 54.5689M52.3475 57.628C50.4107 58.8463 48.1869 59.5 45.9688 59.5H9.41667C8.28139 59.5 7.5 58.65 7.5 57.6608C7.5 56.5877 8.2676 55.8216 9.41667 55.8216H45.9688C47.4606 55.8216 48.9698 55.4112 50.1722 54.5689M43.4465 20.3285L43.4465 20.3285L43.4502 20.3336C44.5979 21.9074 45.1667 23.6566 45.1667 25.4971V25.5945C45.1667 30.4689 41.0761 34.4513 36 34.4513C30.9239 34.4513 26.8333 30.4689 26.8333 25.5945V25.4971C26.8333 23.6573 27.4019 21.9031 28.4569 20.3227L35.0921 10.981C35.3177 10.6946 35.6808 10.5 36 10.5C36.287 10.5 36.5576 10.6618 36.807 10.9807L43.4465 20.3285ZM48.4056 45.8674L48.5825 45.7604C48.583 45.796 48.5833 45.8317 48.5833 45.8674V45.868V45.8686V45.8692V45.8697V45.8703V45.8709V45.8714V45.872V45.8726V45.8732V45.8737V45.8743V45.8749V45.8754V45.876V45.8766V45.8772V45.8777V45.8783V45.8789V45.8794V45.88V45.8806V45.8811V45.8817V45.8823V45.8829V45.8834V45.884V45.8846V45.8851V45.8857V45.8863V45.8868V45.8874V45.888V45.8885V45.8891V45.8897V45.8902V45.8908V45.8914V45.8919V45.8925V45.8931V45.8936V45.8942V45.8948V45.8953V45.8959V45.8965V45.897V45.8976V45.8982V45.8987V45.8993V45.8999V45.9004V45.901V45.9016V45.9021V45.9027V45.9032V45.9038V45.9044V45.9049V45.9055V45.9061V45.9066V45.9072V45.9077V45.9083V45.9089V45.9094V45.91V45.9105V45.9111V45.9116V45.9122V45.9128V45.9133V45.9139V45.9144V45.915V45.9155V45.9161V45.9167V45.9172V45.9178V45.9183V45.9189V45.9194V45.92V45.9205V45.9211V45.9216V45.9222V45.9227V45.9233V45.9238V45.9244V45.9249V45.9255V45.926V45.9266V45.9271V45.9277V45.9282V45.9288V45.9293V45.9298V45.9304V45.9309V45.9315V45.932V45.9326V45.9331V45.9336V45.9342V45.9347V45.9353V45.9358V45.9363V45.9369V45.9374V45.938V45.9385V45.939V45.9396V45.9401V45.9406V45.9412V45.9417V45.9422V45.9428V45.9433V45.9438V45.9443V45.9449V45.9454V45.9459V45.9465V45.947V45.9475V45.948V45.9486V45.9491V45.9496V45.9501V45.9507V45.9512V45.9517V45.9522V45.9527V45.9533V45.9538V45.9543V45.9548V45.9553V45.9558V45.9564V45.9569V45.9574V45.9579V45.9584V45.9589V45.9594V45.9599V45.9605V45.961V45.9615V45.962V45.9625V45.963V45.9635V45.964V45.9645V45.965V45.9655V45.966V45.9665V45.967V45.9675V45.968V45.9685V45.969V45.9695V45.97V45.9705V45.971V45.9715V45.972V45.9724V45.9729V45.9734V45.9739V45.9744V45.9749V45.9754V45.9759V45.9763V45.9768V45.9773V45.9778V45.9783V45.9787V45.9792V45.9797V45.9802V45.9807V45.9811V45.9816V45.9821V45.9825V45.983V45.9835V45.984V45.9844V45.9849V45.9854V45.9858V45.9863V45.9867V45.9872V45.9877V45.9881V45.9886V45.989V45.9895V45.99V45.9904V45.9909V45.9913V45.9918V45.9922V45.9927V45.9931V45.9936V45.994V45.9945V45.9949V45.9954V45.9958V45.9962V45.9967V45.9971V45.9976V45.998V45.9984V45.9989V45.9993V45.9997V46.0002V46.0006V46.001V46.0015V46.0019V46.0023V46.0027V46.0032V46.0036V46.004V46.0044V46.0049V46.0053V46.0057V46.0061V46.0065V46.0069V46.0073V46.0078V46.0082V46.0086V46.009V46.0094V46.0098V46.0102V46.0106V46.011V46.0114V46.0118V46.0122V46.0126V46.013V46.0134V46.0138V46.0142V46.0146V46.015V46.0154V46.0157V46.0161V46.0165V46.0169V46.0173V46.0177V46.018V46.0184V46.0188V46.0192V46.0195V46.0199V46.0203V46.0207V46.021V46.0214V46.0218V46.0221V46.0225V46.0229V46.0232V46.0236V46.0239V46.0243V46.0246V46.025V46.0253V46.0257V46.0261V46.0264V46.0267V46.0271V46.0274V46.0278V46.0281V46.0285V46.0288V46.0291V46.0295V46.0298V46.0301V46.0305V46.0308V46.0311V46.0315V46.0318V46.0321V46.0324V46.0328V46.0331V46.0334V46.0337V46.034V46.0343V46.0347V46.035V46.0353V46.0356V46.0359V46.0362V46.0365V46.0368V46.0371V46.0374V46.0377V46.038V46.0383V46.0386V46.0389V46.0392V46.0394V46.0397V46.04V46.0403V46.0406V46.0409V46.0411V46.0414V46.0417V46.042V46.0422V46.0425V46.0428V46.043V46.0433V46.0436V46.0438V46.0441V46.0444V46.0446V46.0449V46.0451V46.0454V46.0456V46.0459V46.0461V46.0464V46.0466V46.0469V46.0471V46.0473V46.0476V46.0478V46.048V46.0483V46.0485V46.0487V46.049V46.0492V46.0494V46.0496V46.0498V46.0501V46.0503V46.0505V46.0507V46.0509V46.0511V46.0513V46.0515V46.0517V46.0519V46.0522V46.0523V46.0525V46.0527V46.0529V46.0531V46.0533V46.0535V46.0537V46.0539V46.0541V46.0542V46.0544V46.0546V46.0548V46.0549V46.0551V46.0553V46.0554V46.0556V46.0558V46.0559V46.0561V46.0563V46.0564V46.0566V46.0567V46.0569V46.057V46.0572V46.0573V46.0574V46.0576V46.0577V46.0579V46.058V46.0581V46.0583V46.0584V46.0585V46.0586V46.0588V46.0589V46.059V46.0591V46.0592V46.0594V46.0595V46.0596V46.0597V46.0598V46.0599V46.06V46.0601V46.0602V46.0603V46.0604V46.0605V46.0606V46.0606V46.0607V46.0608V46.0609V46.061V46.061V46.0611V46.0612V46.0613V46.0613V46.0614V46.0615V46.0615V46.0616V46.0616V46.0617V46.0617V46.0618V46.0618V46.0619V46.0619V46.062V46.062V46.0621V46.0621V46.0621V46.0622V46.0622V46.0623V46.0623V46.0623V46.0624H48.0833L48.4056 45.8674Z" fill="#D9B31C" stroke="#222327"/>
</svg>
