<svg width="50" height="50" viewBox="0 0 50 50" fill="none" xmlns="http://www.w3.org/2000/svg">
<path d="M28.125 2.34375C28.125 1.07422 29.1016 0 30.4687 0L34.7656 0C39.6484 0 43.75 4.10156 43.75 8.98438C43.75 13.9648 39.6484 17.9688 34.7656 17.9688L2.34375 17.9688C0.976562 17.9688 0 16.9922 0 15.625C0 14.3555 0.976562 13.2812 2.34375 13.2812L34.7656 13.2812C37.1094 13.2812 39.0625 11.4258 39.0625 8.98438C39.0625 6.64062 37.1094 4.6875 34.7656 4.6875H30.4687C29.1016 4.6875 28.125 3.71094 28.125 2.34375ZM34.375 38.2812C34.375 37.0117 35.3516 35.9375 36.7188 35.9375H41.0156C43.3594 35.9375 45.3125 34.082 45.3125 31.6406C45.3125 29.2969 43.3594 27.3437 41.0156 27.3437L2.34375 27.3437C0.976562 27.3437 0 26.3672 0 25C0 23.7305 0.976562 22.6562 2.34375 22.6562L41.0156 22.6563C45.8984 22.6563 50 26.7578 50 31.6406C50 36.6211 45.8984 40.625 41.0156 40.625H36.7188C35.3516 40.625 34.375 39.6484 34.375 38.2812ZM11.7187 50C10.3516 50 9.375 49.0234 9.375 47.6562C9.375 46.3867 10.3516 45.3125 11.7187 45.3125H16.0156C18.3594 45.3125 20.3125 43.457 20.3125 41.0156C20.3125 38.6719 18.3594 36.7188 16.0156 36.7188H2.34375C0.976562 36.7188 0 35.7422 0 34.375C0 33.1055 0.976562 32.0312 2.34375 32.0312H16.0156C20.8984 32.0312 25 36.1328 25 41.0156C25 45.9961 20.8984 50 16.0156 50H11.7187Z" fill="#D9B31C"/>
<path d="M28.125 2.34375C28.125 1.07422 29.1016 0 30.4687 0L34.7656 0C39.6484 0 43.75 4.10156 43.75 8.98438C43.75 13.9648 39.6484 17.9688 34.7656 17.9688L2.34375 17.9688C0.976562 17.9688 0 16.9922 0 15.625C0 14.3555 0.976562 13.2812 2.34375 13.2812L34.7656 13.2812C37.1094 13.2812 39.0625 11.4258 39.0625 8.98438C39.0625 6.64062 37.1094 4.6875 34.7656 4.6875H30.4687C29.1016 4.6875 28.125 3.71094 28.125 2.34375ZM34.375 38.2812C34.375 37.0117 35.3516 35.9375 36.7188 35.9375H41.0156C43.3594 35.9375 45.3125 34.082 45.3125 31.6406C45.3125 29.2969 43.3594 27.3437 41.0156 27.3437L2.34375 27.3437C0.976562 27.3437 0 26.3672 0 25C0 23.7305 0.976562 22.6562 2.34375 22.6562L41.0156 22.6563C45.8984 22.6563 50 26.7578 50 31.6406C50 36.6211 45.8984 40.625 41.0156 40.625H36.7188C35.3516 40.625 34.375 39.6484 34.375 38.2812ZM11.7187 50C10.3516 50 9.375 49.0234 9.375 47.6562C9.375 46.3867 10.3516 45.3125 11.7187 45.3125H16.0156C18.3594 45.3125 20.3125 43.457 20.3125 41.0156C20.3125 38.6719 18.3594 36.7188 16.0156 36.7188H2.34375C0.976562 36.7188 0 35.7422 0 34.375C0 33.1055 0.976562 32.0312 2.34375 32.0312H16.0156C20.8984 32.0312 25 36.1328 25 41.0156C25 45.9961 20.8984 50 16.0156 50H11.7187Z" stroke="#F5F6FA"/>
</svg>
