<svg width="18" height="14" viewBox="0 0 18 14" fill="none" xmlns="http://www.w3.org/2000/svg">
<path id="Vector" d="M17.6291 2.19067C17.4217 1.33405 16.8137 0.658786 16.0427 0.428126C14.6341 0 8.9998 0 8.9998 0C8.9998 0 3.36567 0 1.95711 0.411894C1.20092 0.64231 0.578102 1.33417 0.370679 2.19067C0 3.75525 0 7 0 7C0 7 0 10.2611 0.370679 11.8093C0.578321 12.6658 1.18609 13.3411 1.95722 13.5718C3.3805 14 9.00002 14 9.00002 14C9.00002 14 14.6341 14 16.0427 13.5881C16.8138 13.3576 17.4217 12.6823 17.6294 11.8258C17.9999 10.2611 17.9999 7.01648 17.9999 7.01648C17.9999 7.01648 18.0148 3.75525 17.6291 2.19067ZM7.20595 9.99761V4.00239L11.8912 7L7.20595 9.99761Z" fill="white"/>
</svg>
